<svg xmlns="http://www.w3.org/2000/svg" viewBox="0 0 640 300" width="640" height="300" role="img">
  <defs>
    <g id="wifi">
      <path d="M-15 -8a22 22 0 0 1 30 0" fill="none" stroke="#22a34a" stroke-width="3.2" stroke-linecap="round"/>
      <path d="M-8 -1a12 12 0 0 1 16 0" fill="none" stroke="#22a34a" stroke-width="3.2" stroke-linecap="round"/>
      <circle cx="0" cy="6" r="3" fill="#22a34a"/>
    </g>
  </defs>
  <rect width="640" height="300" fill="#fff"/>

  <!-- Routeur de la maison -->
  <g>
    <path d="M78 212v-44M170 212v-44" fill="none" stroke="#94a3b8" stroke-width="3.2" stroke-linecap="round"/>
    <rect x="58" y="212" width="132" height="46" rx="9" fill="#fff" stroke="#94a3b8" stroke-width="2.4"/>
    <circle cx="80" cy="235" r="4.5" fill="#22a34a"/>
    <circle cx="98" cy="235" r="4.5" fill="#22a34a"/>
    <path d="M122 235h48" fill="none" stroke="#cbd5e1" stroke-width="3" stroke-linecap="round"/>
  </g>
  <g fill="none" stroke="#22a34a" stroke-width="3.2" stroke-linecap="round">
    <path d="M106 176a26 26 0 0 1 36 0"/>
    <path d="M94 160a44 44 0 0 1 60 0"/>
    <path d="M82 144a62 62 0 0 1 84 0"/>
  </g>
  <circle cx="124" cy="190" r="4" fill="#22a34a"/>

  <path d="M212 170h40" fill="none" stroke="#94a3b8" stroke-width="2.4" stroke-linecap="round" stroke-dasharray="10 9"/>

  <!-- Formulaire de connexion -->
  <rect x="276" y="28" width="308" height="232" rx="18" fill="#fff" stroke="#94a3b8" stroke-width="2.4"/>
  <use href="#wifi" x="430" y="60"/>

  <rect x="304" y="92" width="252" height="44" rx="9" fill="#fff" stroke="#7ecdd0" stroke-width="2.4"/>
  <use href="#wifi" transform="translate(330 113) scale(0.75)"/>
  <path d="M356 114h110" fill="none" stroke="#475569" stroke-width="3.4" stroke-linecap="round"/>

  <rect x="304" y="150" width="252" height="44" rx="9" fill="#fff" stroke="#7ecdd0" stroke-width="2.4"/>
  <g fill="none" stroke="#475569" stroke-width="2.6" stroke-linecap="round" stroke-linejoin="round">
    <rect x="321" y="169" width="18" height="14" rx="3"/>
    <path d="M324 169v-4a6 6 0 0 1 12 0v4"/>
  </g>
  <g fill="#475569">
    <circle cx="364" cy="172" r="5"/>
    <circle cx="384" cy="172" r="5"/>
    <circle cx="404" cy="172" r="5"/>
    <circle cx="424" cy="172" r="5"/>
    <circle cx="444" cy="172" r="5"/>
    <circle cx="464" cy="172" r="5"/>
  </g>

  <rect x="304" y="208" width="252" height="34" rx="9" fill="#22a34a"/>
  <path d="M418 225l8 8 16-16" fill="none" stroke="#fff" stroke-width="3.6" stroke-linecap="round" stroke-linejoin="round"/>

  <rect x="0" y="268" width="640" height="7" rx="3.5" fill="#22a34a"/>
</svg>
